<svg viewBox="0 0 64 64" xmlns="http://www.w3.org/2000/svg">
  <defs>
    <linearGradient id="f" x1="0" y1="0" x2="1" y2="1">
      <stop offset="0" stop-color="#7C5CFF"/>
      <stop offset="1" stop-color="#B14BE0"/>
    </linearGradient>
  </defs>
  <rect width="64" height="64" rx="15" fill="url(#f)"/>
  <g fill="#F8CBE0">
    <path d="M13 33 C11 22 21 17 27 22 C30 14 40 15 41 23 C50 19 57 28 50 34 C56 39 50 47 45 43 C45 50 40 51 40 44 C37 49 33 60 30 60 C27 60 25 50 24 45 C22 51 17 50 18 43 C12 46 8 39 14 36 C9 33 10 31 13 33 Z"/>
    <circle cx="31" cy="56" r="3.1"/>
    <circle cx="20" cy="53" r="2.2"/>
  </g>
  <path d="M31 19 C28 26 34 30 31 40" fill="none" stroke="#C76FAA" stroke-width="3" stroke-linecap="round"/>
</svg>
