<svg viewBox="0 0 64 64" xmlns="http://www.w3.org/2000/svg" role="img" aria-label="BrainRotDoctor logo">
  <defs>
    <linearGradient id="brdLogo" x1="0" y1="0" x2="1" y2="1">
      <stop offset="0" stop-color="#7C5CFF"/>
      <stop offset="1" stop-color="#B14BE0"/>
    </linearGradient>
  </defs>
  <rect width="64" height="64" rx="15" fill="url(#brdLogo)"/>
  <g fill="#F8CBE0">
    <path d="M13 33 C11 22 21 17 27 22 C30 14 40 15 41 23 C50 19 57 28 50 34 C56 39 50 47 45 43 C45 50 40 51 40 44 C37 49 33 60 30 60 C27 60 25 50 24 45 C22 51 17 50 18 43 C12 46 8 39 14 36 C9 33 10 31 13 33 Z"/>
    <circle cx="31" cy="56" r="3.1"/>
    <circle cx="20" cy="53" r="2.2"/>
  </g>
  <path d="M31 19 C28 26 34 30 31 40" fill="none" stroke="#C76FAA" stroke-width="3" stroke-linecap="round"/>
  <g fill="none" stroke="#DC86BA" stroke-width="2.6" stroke-linecap="round">
    <path d="M20 26 C16 30 22 32 18 37"/>
    <path d="M24 23 C21 26 26 28 23 31"/>
    <path d="M38 25 C43 28 37 31 42 35"/>
    <path d="M45 30 C49 33 44 35 48 38"/>
  </g>
</svg>
